<mxfile host="app.diagrams.net" modified="2023-01-02T05:54:46.153Z" agent="5.0 (Windows)" etag="kuj29e8XTKqQUaBC3TaX" version="20.0.4" type="github">
  <diagram id="65GB0dhw0RvpdysIPVcm" name="Page-1">
    <mxGraphModel dx="1662" dy="752" grid="1" gridSize="10" guides="1" tooltips="1" connect="1" arrows="1" fold="1" page="1" pageScale="1" pageWidth="850" pageHeight="1100" math="0" shadow="0">
      <root>
        <mxCell id="0" />
        <mxCell id="1" parent="0" />
        <mxCell id="b2S_64YA6sA6BXN9tEae-1" value="&lt;div&gt;Once DE count &amp;gt; 30&lt;/div&gt;&lt;div&gt;Disable CTA&lt;br&gt;&lt;/div&gt;" style="whiteSpace=wrap;html=1;aspect=fixed;" vertex="1" parent="1">
          <mxGeometry x="30" y="190" width="80" height="80" as="geometry" />
        </mxCell>
        <mxCell id="b2S_64YA6sA6BXN9tEae-2" value="CP_01" style="text;html=1;strokeColor=none;fillColor=none;align=center;verticalAlign=middle;whiteSpace=wrap;rounded=0;" vertex="1" parent="1">
          <mxGeometry x="40" y="150" width="60" height="30" as="geometry" />
        </mxCell>
        <mxCell id="b2S_64YA6sA6BXN9tEae-3" value="Application Form" style="whiteSpace=wrap;html=1;aspect=fixed;" vertex="1" parent="1">
          <mxGeometry x="200" y="190" width="80" height="80" as="geometry" />
        </mxCell>
        <mxCell id="b2S_64YA6sA6BXN9tEae-4" value="CP_02" style="text;html=1;strokeColor=none;fillColor=none;align=center;verticalAlign=middle;whiteSpace=wrap;rounded=0;" vertex="1" parent="1">
          <mxGeometry x="210" y="150" width="60" height="30" as="geometry" />
        </mxCell>
        <mxCell id="b2S_64YA6sA6BXN9tEae-6" value="Confirmation Form" style="whiteSpace=wrap;html=1;aspect=fixed;" vertex="1" parent="1">
          <mxGeometry x="360" y="190" width="80" height="80" as="geometry" />
        </mxCell>
        <mxCell id="b2S_64YA6sA6BXN9tEae-7" value="CP_03" style="text;html=1;strokeColor=none;fillColor=none;align=center;verticalAlign=middle;whiteSpace=wrap;rounded=0;" vertex="1" parent="1">
          <mxGeometry x="370" y="150" width="60" height="30" as="geometry" />
        </mxCell>
        <mxCell id="b2S_64YA6sA6BXN9tEae-8" value="Thank You Page" style="whiteSpace=wrap;html=1;aspect=fixed;" vertex="1" parent="1">
          <mxGeometry x="510" y="190" width="80" height="80" as="geometry" />
        </mxCell>
        <mxCell id="b2S_64YA6sA6BXN9tEae-9" value="CP_04" style="text;html=1;strokeColor=none;fillColor=none;align=center;verticalAlign=middle;whiteSpace=wrap;rounded=0;" vertex="1" parent="1">
          <mxGeometry x="520" y="150" width="60" height="30" as="geometry" />
        </mxCell>
        <mxCell id="b2S_64YA6sA6BXN9tEae-13" value="" style="rounded=1;whiteSpace=wrap;html=1;fontSize=9;arcSize=50;" vertex="1" parent="1">
          <mxGeometry x="360" y="250" width="80" height="20" as="geometry" />
        </mxCell>
        <mxCell id="b2S_64YA6sA6BXN9tEae-14" value="Text" style="text;html=1;strokeColor=none;fillColor=none;align=center;verticalAlign=middle;whiteSpace=wrap;rounded=0;fontSize=9;" vertex="1" parent="1">
          <mxGeometry x="370" y="250" width="60" height="20" as="geometry" />
        </mxCell>
      </root>
    </mxGraphModel>
  </diagram>
</mxfile>
